# xmcd
#
# Track frame offsets:
#	150
#	13117
#	26807
#	37625
#	55765
#	72565
#	92080
#	108392
#	125630
#	139402
#	156467
#	169152
#	181262
#	190865
#	205602
#	216647
#	233097
#	246235
#
# Disc length: 3510
#
# Revision: 3
# Processed by: cddbd v1.5.1PL0 Copyright (c) Steve Scherf et al.
# Submitted via: EasyCD2 v3.00 - Copyright (c) 1997 Greg Leichner
# Normalized: r1:TDELIM( - ),TSWAP
#
DISCID=080db412
DTITLE=Various Artist - All Time Country Greats Disc 2
DYEAR=1900
DGENRE=
TTITLE0=Lynn Anderson - (I Never Promised You A) Rose Garden
TTITLE1=Willie Nelson - The Highwayman
TTITLE2=Frankie Laine - High Noon
TTITLE3=Dolly Parton - The River Unbroken
TTITLE4=Johnny Cash - A Boy Named Sue
TTITLE5=Marty Robbins - El Paso
TTITLE6=Charlie Daniels - The Devil Went Down To Georgia
TTITLE7=Rcky Scaggs - Country Boy
TTITLE8=Lefty Frizzell - Saginaw Michigan
TTITLE9=Kris Kristofferson - Loving Her Was Easy
TTITLE10=Johnny Horton - North To Alaska
TTITLE11=George Jones - The Door
TTITLE12=Flatt And Scruggs - Foggy Mountain Breakdown
TTITLE13=Rosanne Cash - Seven Year Ache
TTITLE14=Roy Orbison - Blue Bayou
TTITLE15=Tammy Wynette and Mark Gray - Sometimes When We Touch
TTITLE16=Charlie Rich - Behind Closed Doors
TTITLE17=Ray Price - For The Good Times
EXTD=
EXTT0=
EXTT1=
EXTT2=
EXTT3=
EXTT4=
EXTT5=
EXTT6=
EXTT7=
EXTT8=
EXTT9=
EXTT10=
EXTT11=
EXTT12=
EXTT13=
EXTT14=
EXTT15=
EXTT16=
EXTT17=
PLAYORDER=
